<svg width="200" height="200" viewBox="0 0 200 200" fill="none" xmlns="http://www.w3.org/2000/svg">
<path d="M27.004 170.207C27.004 173.283 29.494 175.774 32.569 175.774H167.886C170.962 175.774 173.455 173.283 173.455 170.207V80.7791C173.455 77.7031 170.962 75.208 167.886 75.208H32.569C29.494 75.208 27.004 77.7031 27.004 80.7791V170.207Z" fill="#433DB3"/>
<path d="M32.545 175.774H167.909C170.975 175.761 173.454 173.271 173.454 170.207V144.189C153.378 140.189 127.924 137.8 100.225 137.8C72.532 137.8 47.073 140.189 27 144.189V170.207C27 173.271 29.48 175.762 32.545 175.774Z" fill="url(#paint0_linear_2866_643)"/>
<path d="M27.004 108.995V93.135H173.456V108.995H27.004Z" fill="#35308D"/>
<path d="M56.129 30.2451V118.349C56.129 121.427 58.129 124.702 60.596 125.66L168.992 174.378C171.454 175.336 173.454 173.621 173.454 170.545V81.1182C173.454 78.0362 172.272 75.3512 168.992 73.8062L63.676 25.2791C60.189 24.1901 56.129 26.3801 56.129 30.2451Z" fill="url(#paint1_linear_2866_643)"/>
<path d="M112.684 70.0362C112.684 71.9972 114.275 74.3092 116.24 75.1952C118.209 76.0832 119.798 75.2081 119.798 73.2481C119.798 71.2831 118.209 68.9711 116.24 68.0841C114.274 67.1961 112.684 68.0672 112.684 70.0362ZM145.991 137.282C145.991 139.25 147.583 141.559 149.547 142.447C151.517 143.333 153.109 142.463 153.109 140.498C153.109 138.53 151.517 136.226 149.547 135.335C147.583 134.447 145.991 135.322 145.991 137.282ZM80.224 107.581C80.224 109.551 81.817 111.858 83.783 112.746C85.748 113.637 87.338 112.762 87.338 110.794C87.338 108.829 85.748 106.521 83.783 105.634C81.816 104.746 80.224 105.621 80.224 107.581ZM67.281 97.4881C67.281 93.2211 70.744 91.3211 75.014 93.2511L81.948 96.3832L81.939 84.3841C81.939 83.1051 83.06 82.491 84.333 83.065L109.483 94.4222C110.184 92.4232 111.979 91.3892 114.268 91.6512V82.7281L107.475 79.6603C103.203 77.7313 99.739 72.7061 99.739 68.4371V59.9381C99.739 55.6731 103.203 53.7751 107.475 55.7001L125.005 63.617C129.276 65.549 132.74 70.5751 132.74 74.8441V83.3382C132.74 87.6082 129.275 89.5081 125.005 87.5751L119.065 84.8902V93.8163C121.348 95.6233 123.147 98.2752 123.846 100.913L148.994 112.267C150.267 112.845 151.392 114.473 151.392 115.748V127.746L158.314 130.875C162.586 132.804 166.047 137.825 166.047 142.094V150.588C166.047 154.861 162.586 156.755 158.314 154.825L140.783 146.909C136.509 144.985 133.046 139.959 133.046 135.69V127.192C133.046 122.922 136.509 121.026 140.783 122.955L146.596 125.577V115.981L123.701 105.641C122.639 108.017 119.889 108.809 116.663 107.352C113.435 105.894 110.684 102.623 109.626 99.2821L86.734 88.9491L86.745 98.5492L92.545 101.17C96.817 103.099 100.278 108.124 100.278 112.394V120.888C100.278 125.157 96.817 127.058 92.545 125.125L75.013 117.209C70.742 115.279 67.28 110.255 67.28 105.985L67.281 97.4881Z" fill="#18D5F5"/>
<defs>
<linearGradient id="paint0_linear_2866_643" x1="26.9983" y1="156.787" x2="173.452" y2="156.787" gradientUnits="userSpaceOnUse">
<stop stop-color="#2C3CC9"/>
<stop offset="0.6784" stop-color="#9068FC"/>
<stop offset="1" stop-color="#9068FC"/>
</linearGradient>
<linearGradient id="paint1_linear_2866_643" x1="51.7748" y1="43.1344" x2="177.871" y2="156.323" gradientUnits="userSpaceOnUse">
<stop stop-color="#9068FC"/>
<stop offset="0.2902" stop-color="#9068FC"/>
<stop offset="0.8902" stop-color="#2C3CC9"/>
<stop offset="1" stop-color="#2C3CC9"/>
</linearGradient>
</defs>
</svg>
